<svg width="7263" height="2211" viewBox="0 0 7263 2211" fill="none" xmlns="http://www.w3.org/2000/svg">
<path d="M1994.56 1694.23L1418.97 2071.85L1336.94 2006.77L1319.31 2117.95L1180.33 2210.16L1052.87 2132.19L1033.21 2116.6L934.909 2038.63L933.553 2069.14L359.32 1692.19L0 1408.13L824.402 0L1183.72 284.066L1994.56 1694.23Z" fill="black"/>
<path d="M7263 2037.27H6943.68L6774.19 1903.72V2037.27H6279.95L6147.07 1932.19V2037.27H5879.96L5778.26 1956.6C5757.24 1974.9 5734.87 1990.49 5710.47 2003.38H5709.79C5649.45 2033.88 5581.65 2049.48 5514.53 2049.48C5447.42 2049.48 5379.62 2033.88 5319.28 2003.38L5318.6 2002.7C5303.69 1994.56 5289.45 1985.75 5275.89 1976.26L5275.21 1975.58C5266.4 1969.48 5258.26 1962.7 5250.13 1955.24L5036.57 1785.75V2035.92H4770.13L4410.81 1751.85V1614.9L4273.86 2035.92H4020.31L3929.46 1791.85L3849.46 2035.92H3596.58L3439.29 1911.85V2035.92H2854.21L2843.36 2027.1V2035.92H2631.84L2431.16 1877.95V2036.6H2167.44L1808.12 1752.53V1047.45H1955.23L1808.12 931.518V226.438H2381.67V227.116H2937.6H3204.04L3346.41 338.98V227.116H3612.85L3723.36 314.573C3746.41 293.556 3772.17 275.251 3800.65 261.014C3861.66 229.828 3929.46 214.235 3997.26 214.913C4056.24 214.235 4113.87 225.082 4168.78 247.455H4169.46C4219.63 268.472 4265.05 301.692 4300.3 343.047L4305.73 349.827V189.828H4565.39L4787.08 364.742C4812.17 359.319 4837.93 356.607 4863.69 356.607C4917.93 356.607 4972.84 368.81 5021.66 391.861C5069.11 415.589 5109.11 451.521 5136.91 496.267L5137.59 496.945C5147.08 513.894 5155.21 531.521 5161.32 549.148V189.828H5420.98L5738.94 440.674L5772.16 419.657C5806.06 397.962 5843.35 382.369 5881.99 372.878C5921.99 362.708 5964.02 357.285 6006.06 357.285H6008.09C6096.9 357.285 6166.73 378.979 6216.9 421.691L6293.51 482.708V189.828H6553.17V192.54L6911.14 473.894H6912.49V1055.59L7261.64 1331.52L6966.05 1652.19L7263 2037.27Z" fill="black"/>
<path d="M2344.16 746.024V879.445H1853.3V268.135H2332.76V401.556H2024.56V504.654H2296.13V633.829H2024.56V745.66L2344.16 746.024Z" fill="white"/>
<path d="M2570.42 405.563H2382.66V268.504H2930.41V405.563H2743.26V879.814H2570.42V405.563Z" fill="white"/>
<path d="M3564.25 268.385V879.695H3391.29V641.235H3155.5V879.695H2982.66V268.385H3155.5V497.99H3391.29V268.385H3564.25Z" fill="white"/>
<path d="M4096.11 560.933H4248.94V814.191C4212.24 839.983 4171.49 859.456 4128.37 871.804C4084.16 884.971 4038.29 891.712 3992.16 891.818C3932.05 892.765 3872.64 878.849 3819.2 851.306C3769.35 825.463 3727.65 786.286 3698.76 738.14C3670.14 688.159 3655.09 631.566 3655.09 573.972C3655.09 516.379 3670.14 459.785 3698.76 409.804C3727.83 361.525 3769.85 322.362 3820.05 296.761C3874.39 269.05 3934.69 255.097 3995.68 256.127C4048.32 255.297 4100.58 265.073 4149.36 284.873C4193.27 303.093 4232.19 331.537 4262.89 367.837L4152.87 467.417C4134.56 445.969 4111.79 428.77 4086.15 417.019C4060.51 405.267 4032.62 399.245 4004.41 399.373C3981.19 398.321 3957.99 401.993 3936.23 410.166C3914.46 418.338 3894.58 430.841 3877.78 446.919C3845.44 478.697 3829.27 521.069 3829.27 574.033C3828.73 605.522 3836.24 636.626 3851.1 664.396C3865.07 690.357 3886.1 711.842 3911.75 726.375C3939.24 741.542 3970.23 749.237 4001.62 748.693C4033.89 748.862 4065.8 741.991 4095.14 728.559L4096.11 560.933Z" fill="white"/>
<path d="M4351.09 231.629H4517.01V879.691H4351.09V231.629Z" fill="white"/>
<path d="M4724.8 856.035C4685.08 836.362 4651.76 805.804 4628.74 767.923C4605.72 730.041 4593.94 686.397 4594.78 642.076C4594.12 598.058 4605.95 554.755 4628.89 517.186C4651.84 479.618 4684.97 449.323 4724.44 429.816C4767.47 409.37 4814.52 398.762 4862.16 398.762C4909.81 398.762 4956.86 409.37 4999.89 429.816C5039.16 449.078 5072.17 479.061 5095.1 516.297C5117.43 554.675 5129.2 598.282 5129.2 642.683C5129.2 687.083 5117.43 730.691 5095.1 769.069C5072.21 806.551 5039.21 836.819 4999.89 856.399C4956.99 877.076 4909.97 887.814 4862.35 887.814C4814.72 887.814 4767.7 877.076 4724.8 856.399V856.035ZM4933.54 725.525C4953.31 702.37 4963.35 672.467 4961.56 642.076C4963.29 612.098 4953.24 582.631 4933.54 559.962C4914.52 541.023 4888.77 530.39 4861.92 530.39C4835.08 530.39 4809.32 541.023 4790.3 559.962C4770.69 582.675 4760.69 612.122 4762.4 642.076C4760.63 672.444 4770.62 702.326 4790.3 725.525C4799.64 735.049 4810.78 742.615 4823.08 747.78C4835.38 752.945 4848.58 755.606 4861.92 755.606C4875.26 755.606 4888.46 752.945 4900.76 747.78C4913.06 742.615 4924.21 735.049 4933.54 725.525Z" fill="white"/>
<path d="M5621.27 428.122C5656.62 447.994 5685.67 477.418 5705.08 513.026C5725.49 552.983 5736.14 597.212 5736.14 642.08C5736.14 686.949 5725.49 731.178 5705.08 771.135C5685.7 807.044 5656.67 836.827 5621.27 857.13C5585.49 877.377 5544.97 887.758 5503.86 887.211C5441.52 887.211 5394.94 868.896 5364.13 832.266V879.448H5206.45V231.629H5372.5V447.407C5404.44 415.063 5448.39 398.891 5504.34 398.891C5545.2 398.33 5585.49 408.403 5621.27 428.122ZM5540.49 725.529C5560.25 702.374 5570.29 672.471 5568.51 642.08C5570.24 612.102 5560.18 582.635 5540.49 559.966C5521.46 541.027 5495.71 530.394 5468.87 530.394C5442.02 530.394 5416.27 541.027 5397.24 559.966C5377.64 582.679 5367.64 612.126 5369.35 642.08C5367.58 672.448 5377.57 702.33 5397.24 725.529C5406.58 735.053 5417.73 742.619 5430.03 747.784C5442.32 752.949 5455.53 755.61 5468.87 755.61C5482.21 755.61 5495.41 752.949 5507.71 747.784C5520.01 742.619 5531.15 735.053 5540.49 725.529Z" fill="white"/>
<path d="M6184.16 452.132C6225.4 487.873 6246.06 542.737 6246.14 616.725V879.686H6091.49V819.04C6067.23 865.05 6020.66 888.014 5951.76 887.933C5919.03 888.79 5886.52 882.239 5856.67 868.769C5831.87 857.683 5810.8 839.652 5796.02 816.856C5782.18 794.427 5775.06 768.495 5775.53 742.141C5774.69 721.827 5778.97 701.627 5787.98 683.4C5796.98 665.173 5810.43 649.503 5827.07 637.83C5861.44 613.086 5914.41 600.715 5985.97 600.715H6080.33C6077.42 550.662 6043.94 525.595 5979.9 525.514C5956.48 525.624 5933.2 529.304 5910.89 536.43C5889.4 542.794 5869.26 553.03 5851.45 566.632L5795.66 453.951C5824.98 435.077 5857.3 421.337 5891.24 413.319C5928.17 403.79 5966.15 398.941 6004.28 398.885C6082.8 398.562 6142.76 416.311 6184.16 452.132ZM6048.67 768.703C6063.57 759.052 6074.7 744.58 6080.21 727.707V686.589H6008.53C5960.01 686.589 5935.75 702.721 5935.75 735.105C5935.52 741.834 5936.9 748.521 5939.8 754.601C5942.69 760.68 5947 765.975 5952.37 770.038C5965.56 779.446 5981.56 784.068 5997.73 783.137C6015.76 783.447 6033.49 778.426 6048.67 768.703Z" fill="white"/>
<path d="M6338.69 231.629H6504.62V879.691H6338.69V231.629Z" fill="white"/>
<path d="M2435.05 1089.41V1700.72H2292.65L2022.78 1375.05V1700.72H1852.97V1089.41H1995.37L2265.24 1415.2V1089.41H2435.05Z" fill="white"/>
<path d="M3030.58 1567.17V1700.59H2539.84V1089.28H3019.18V1222.7H2710.98V1325.68H2982.55V1454.98H2710.98V1566.81L3030.58 1567.17Z" fill="white"/>
<path d="M4076.83 1089.41L3878.52 1700.72H3693.43L3576.38 1328.72L3454.12 1700.72H3269.03L3070.72 1089.41H3248.9L3372.01 1479.85L3501.3 1089.41H3660.2L3783.31 1483.25L3911.75 1089.41H4076.83Z" fill="white"/>
<path d="M4628.46 1481.55V1700.72H4455.5V1478.88L4222.38 1089.41H4404.92L4549.86 1332L4695.41 1089.41H4863.04L4628.46 1481.55Z" fill="white"/>
<path d="M4979.24 1671.97C4928.76 1645.47 4886.49 1605.66 4857 1556.87C4827.5 1508.07 4811.91 1452.14 4811.91 1395.12C4811.91 1338.11 4827.5 1282.18 4857 1233.38C4886.49 1184.58 4928.76 1144.78 4979.24 1118.28C5033.34 1091.23 5093 1077.16 5153.48 1077.16C5213.96 1077.16 5273.61 1091.23 5327.71 1118.28C5378.23 1144.75 5420.54 1184.54 5450.06 1233.34C5479.58 1282.14 5495.18 1338.09 5495.18 1395.12C5495.18 1452.16 5479.58 1508.1 5450.06 1556.9C5420.54 1605.7 5378.23 1645.5 5327.71 1671.97C5273.59 1698.93 5213.95 1712.96 5153.48 1712.96C5093.01 1712.96 5033.37 1698.93 4979.24 1671.97ZM5237.35 1547.89C5262.45 1533.26 5283.02 1511.98 5296.78 1486.4C5311.14 1458.11 5318.61 1426.84 5318.61 1395.12C5318.61 1363.41 5311.14 1332.14 5296.78 1303.85C5283.03 1278.22 5262.46 1256.9 5237.35 1242.23C5211.74 1227.91 5182.88 1220.4 5153.54 1220.4C5124.19 1220.4 5095.34 1227.91 5069.73 1242.23C5044.61 1256.9 5024.04 1278.22 5010.29 1303.85C4995.94 1332.14 4988.46 1363.41 4988.46 1395.12C4988.46 1426.84 4995.94 1458.11 5010.29 1486.4C5024.02 1512 5044.6 1533.29 5069.73 1547.89C5095.34 1562.21 5124.19 1569.73 5153.54 1569.73C5182.88 1569.73 5211.74 1562.21 5237.35 1547.89Z" fill="white"/>
<path d="M5833.87 1538.31H5739.51V1700.72H5566.55V1089.41H5845.52C5894.96 1088.27 5944.07 1097.66 5989.61 1116.94C6028.09 1133.32 6060.91 1160.65 6083.98 1195.54C6106.61 1231.43 6118.17 1273.19 6117.21 1315.62C6118.13 1356.36 6107.36 1396.52 6086.16 1431.33C6064.61 1465.04 6033.84 1491.85 5997.5 1508.59L6129.46 1700.72H5944.25L5833.87 1538.31ZM5915.87 1249.27C5897.92 1233.5 5871.15 1225.62 5835.57 1225.62H5739.51V1404.64H5835.57C5871.07 1404.64 5897.84 1396.96 5915.87 1381.6C5925.07 1373.35 5932.29 1363.14 5936.99 1351.71C5941.7 1340.29 5943.76 1327.95 5943.04 1315.62C5943.74 1303.23 5941.67 1290.84 5936.96 1279.37C5932.26 1267.89 5925.06 1257.6 5915.87 1249.27Z" fill="white"/>
<path d="M6431.11 1478.88L6366.58 1547.89V1700.72H6195.32V1089.41H6366.58V1344.12L6603.22 1089.41H6793.53L6543.79 1360.14L6806.63 1700.72H6605.53L6431.11 1478.88Z" fill="white"/>
<path d="M61.0312 1388.02L528.368 1695.13L551.656 1053.86V1050.22C551.477 1049.63 551.477 1049 551.656 1048.4C551.783 1047.75 552.125 1047.15 552.627 1046.7C553.712 1044.03 555.319 1041.6 557.357 1039.55C557.403 1039.28 557.533 1039.02 557.729 1038.83C557.924 1038.63 558.176 1038.5 558.448 1038.46C558.448 1037.24 559.662 1037.24 560.874 1037.24C562.087 1037.24 561.966 1036.03 563.179 1036.03C564.043 1035.92 564.85 1035.54 565.484 1034.94C566.697 1034.94 567.788 1033.73 569.122 1033.73H600.173V985.21C600.196 982.14 600.771 979.1 601.871 976.234C603.081 973.429 604.809 970.878 606.965 968.714C609.101 966.554 611.661 964.861 614.485 963.742C617.327 962.547 620.378 961.928 623.461 961.922H689.201L703.514 931.477L735.171 863.433L766.949 796.723L783.323 762.64C788.053 756.818 793.997 751.117 798.606 745.295L814.616 273.956L829.293 745.174C834.63 750.753 839.724 756.575 844.576 762.64L860.95 796.601L892.728 864.404L924.385 931.235L938.698 961.8H1009.17C1012.2 961.808 1015.2 962.384 1018.02 963.499C1020.88 964.676 1023.48 966.407 1025.66 968.593C1027.81 970.739 1029.5 973.297 1030.64 976.113C1031.84 978.908 1032.46 981.923 1032.46 984.968V1033.48H1059.5C1059.79 1033.36 1060.1 1033.3 1060.41 1033.3C1060.73 1033.3 1061.04 1033.36 1061.32 1033.48C1061.95 1033.61 1062.51 1033.95 1062.9 1034.45C1063.82 1034.49 1064.69 1034.88 1065.33 1035.55C1066.54 1035.55 1066.54 1036.76 1067.63 1036.76C1068.72 1036.76 1068.84 1037.97 1069.94 1037.97L1072.36 1040.28L1073.57 1041.49L1074.79 1042.58C1075.19 1043.08 1075.48 1043.66 1075.64 1044.28C1075.87 1044.86 1075.87 1045.51 1075.64 1046.1V1046.95C1075.64 1048.16 1076.85 1048.16 1076.85 1049.25C1076.85 1050.34 1076.85 1050.47 1078.06 1051.68V1056.29L1101.35 1697.43L1570.51 1389.72L822.258 88.1367L61.0312 1388.02ZM715.279 1801.87L721.1 1806.6L818.134 1865.18L915.167 1800.9L1026.63 1077.76H602.113L715.279 1801.87Z" fill="white"/>
</svg>
